<?xml version="1.0" standalone="yes"?>
<svg xmlns="http://www.w3.org/2000/svg" width="460" height="331">
<path style="fill:#ffffff; stroke:none;" d="M0 0L0 331L460 331L460 0L0 0z"/>
<path style="fill:#020202; stroke:none;" d="M3 6L3 325L322 325L322 171L415 171C424.059 171 442.146 167.529 449 174C459.095 169.289 459.095 160.711 449 156C442.146 162.471 424.059 159 415 159L322 159L322 6L3 6z"/>
<path style="fill:#ffffff; stroke:none;" d="M16 19L16 312L309 312L309 19L16 19z"/>
<path style="fill:#b2b2b2; stroke:none;" d="M449.667 155.333L450.333 155.667L449.667 155.333M447 156L448 157L447 156z"/>
<path style="fill:#4a4a4a; stroke:none;" d="M448 156L449 157L448 156z"/>
<path style="fill:#979797; stroke:none;" d="M451 156L452 157L451 156z"/>
<path style="fill:#4a4a4a; stroke:none;" d="M447.333 157.667L447.667 158.333L447.333 157.667z"/>
<path style="fill:#979797; stroke:none;" d="M452 157L453 158L452 157M453 158L454 159L453 158M454 159L455 160L454 159M455 160L456 161L455 160M456 161L457 162L456 161M457 162L458 163L457 162z"/>
<path style="fill:#b2b2b2; stroke:none;" d="M458 163L459 164L458 163z"/>
<path style="fill:#979797; stroke:none;" d="M458.333 164.667L458.667 165.333L458.333 164.667z"/>
<path style="fill:#b2b2b2; stroke:none;" d="M458 166L459 167L458 166z"/>
<path style="fill:#979797; stroke:none;" d="M457 167L458 168L457 167M456 168L457 169L456 168M455 169L456 170L455 169M454 170L455 171L454 170z"/>
<path style="fill:#4a4a4a; stroke:none;" d="M447 171L449 174L447 171z"/>
<path style="fill:#979797; stroke:none;" d="M453 171L454 172L453 171M452 172L453 173L452 172z"/>
<path style="fill:#b2b2b2; stroke:none;" d="M447 173L448 174L447 173z"/>
<path style="fill:#979797; stroke:none;" d="M451 173L452 174L451 173z"/>
<path style="fill:#b2b2b2; stroke:none;" d="M449.667 174.333L450.333 174.667L449.667 174.333z"/>
</svg>
