<svg id="svg" version="1.1" xmlns="http://www.w3.org/2000/svg" xmlns:xlink="http://www.w3.org/1999/xlink" width="400" height="276.80890538033395" viewBox="0, 0, 400,276.80890538033395"><g id="svgg"><path id="path0" d="M0.000 138.408 L 0.000 276.817 200.000 276.817 L 400.000 276.817 400.000 138.408 L 400.000 0.000 200.000 0.000 L 0.000 0.000 0.000 138.408 M392.111 137.301 L 392.111 272.526 256.401 272.595 L 120.692 272.665 120.692 205.544 L 120.692 138.424 119.405 139.108 C 118.697 139.484,117.960 139.792,117.767 139.792 C 117.574 139.792,117.375 139.894,117.324 140.019 C 117.215 140.287,113.724 142.007,113.288 142.007 C 113.123 142.007,112.946 142.109,112.895 142.233 C 112.767 142.547,109.258 144.221,108.727 144.221 C 108.113 144.221,107.958 143.632,107.958 141.293 L 107.958 139.240 55.017 139.170 L 2.076 139.100 2.076 136.609 L 2.076 134.118 55.017 134.048 L 107.958 133.978 107.958 131.681 C 107.958 128.509,108.150 128.384,110.727 129.868 C 110.955 130.000,111.329 130.178,111.557 130.264 C 111.785 130.350,112.159 130.533,112.388 130.670 C 112.843 130.943,114.225 131.610,114.879 131.872 C 115.107 131.963,115.481 132.154,115.709 132.297 C 115.938 132.439,116.311 132.628,116.540 132.717 C 116.768 132.805,117.329 133.117,117.785 133.408 C 118.242 133.700,118.819 133.948,119.066 133.959 C 119.314 133.970,119.672 134.166,119.862 134.394 C 120.051 134.623,120.316 134.810,120.449 134.810 C 120.588 134.810,120.692 106.300,120.692 68.373 L 120.692 1.937 256.401 2.007 L 392.111 2.076 392.111 137.301 M126.505 137.301 L 126.505 266.851 256.471 266.851 L 386.436 266.851 386.436 137.301 L 386.436 7.751 256.471 7.751 L 126.505 7.751 126.505 137.301 " stroke="none" fill="#fcfcfc" fill-rule="evenodd"></path><path id="path1" d="M121.241 68.720 C 121.239 106.374,121.132 135.114,120.994 135.333 C 120.758 135.705,119.680 135.358,117.580 134.235 C 116.475 133.644,113.787 132.312,112.045 131.492 C 111.018 131.009,110.108 130.499,110.021 130.359 C 109.278 129.156,108.512 130.151,108.512 132.318 L 108.512 134.533 55.502 134.533 L 2.491 134.533 2.491 136.609 L 2.491 138.685 55.502 138.685 L 108.512 138.685 108.512 140.900 C 108.512 143.330,108.669 143.507,110.130 142.717 C 110.534 142.498,112.700 141.408,114.943 140.295 C 117.186 139.181,119.342 138.104,119.735 137.901 C 121.363 137.059,121.246 131.832,121.246 204.974 L 121.246 272.111 256.471 272.111 L 391.696 272.111 391.696 137.301 L 391.696 2.491 256.471 2.491 L 121.246 2.491 121.241 68.720 M386.851 137.301 L 386.851 267.266 256.471 267.266 L 126.090 267.266 126.019 137.578 C 125.980 66.249,126.008 7.733,126.080 7.543 C 126.185 7.266,152.420 7.211,256.531 7.266 L 386.851 7.336 386.851 137.301 " stroke="none" fill="#040404" fill-rule="evenodd"></path><path id="path2" d="M121.024 2.270 C 120.768 2.526,120.692 17.661,120.692 68.706 C 120.692 110.128,120.594 134.810,120.430 134.810 C 120.286 134.810,119.582 134.498,118.866 134.118 C 118.150 133.737,117.427 133.426,117.260 133.426 C 116.758 133.426,119.959 135.064,120.484 135.076 C 120.943 135.086,120.971 131.690,121.037 68.720 L 121.107 2.353 256.513 2.353 C 330.987 2.353,391.862 2.260,391.791 2.145 C 391.558 1.768,121.402 1.892,121.024 2.270 M126.228 137.301 L 126.228 267.129 256.401 267.059 L 386.574 266.990 386.574 137.301 L 386.574 7.612 256.401 7.543 L 126.228 7.473 126.228 137.301 M386.436 137.301 L 386.436 266.851 256.471 266.851 L 126.505 266.851 126.505 137.301 L 126.505 7.751 256.471 7.751 L 386.436 7.751 386.436 137.301 M108.340 129.401 C 108.245 129.648,108.245 129.929,108.340 130.023 C 108.434 130.118,108.512 129.988,108.512 129.735 C 108.512 129.132,108.600 129.147,109.896 129.965 C 110.499 130.346,111.157 130.657,111.358 130.657 C 111.559 130.657,111.898 130.813,112.111 131.003 C 112.441 131.298,112.445 131.277,112.133 130.865 C 111.931 130.599,111.532 130.381,111.246 130.381 C 110.961 130.381,110.727 130.268,110.727 130.131 C 110.727 129.994,110.322 129.721,109.827 129.526 C 109.332 129.331,108.834 129.121,108.720 129.061 C 108.606 129.000,108.435 129.153,108.340 129.401 M113.356 131.654 C 115.347 132.708,116.817 133.362,116.815 133.193 C 116.814 133.093,115.957 132.606,114.909 132.111 C 112.952 131.186,111.874 130.869,113.356 131.654 M2.122 134.441 C 1.868 134.695,1.889 138.622,2.145 138.781 C 2.260 138.851,2.353 137.862,2.353 136.583 C 2.353 135.303,2.343 134.256,2.330 134.256 C 2.317 134.256,2.224 134.339,2.122 134.441 M116.175 140.132 C 113.767 141.346,111.849 142.391,111.913 142.455 C 111.977 142.519,113.978 141.583,116.360 140.376 L 120.691 138.180 120.761 205.353 L 120.830 272.526 256.180 272.595 C 330.622 272.634,391.622 272.571,391.737 272.457 C 391.851 272.343,330.975 272.281,256.457 272.319 L 120.969 272.389 120.969 205.276 C 120.969 168.365,120.875 138.110,120.761 138.044 C 120.647 137.978,118.583 138.917,116.175 140.132 M109.937 143.256 C 108.503 144.076,108.584 144.065,108.426 143.460 C 108.312 143.023,108.296 143.022,108.267 143.444 C 108.209 144.290,110.397 143.774,111.534 142.672 C 111.890 142.328,110.978 142.661,109.937 143.256 " stroke="none" fill="#bcbcbc" fill-rule="evenodd"></path><path id="path3" d="M121.154 2.399 C 121.052 2.500,120.969 32.397,120.969 68.835 C 120.969 127.089,120.919 135.087,120.560 135.087 C 120.335 135.087,118.186 134.091,115.785 132.873 C 113.383 131.656,111.323 130.659,111.206 130.659 C 111.088 130.658,110.485 130.337,109.865 129.945 C 108.443 129.048,108.394 129.108,108.276 131.925 L 108.179 134.255 55.266 134.325 L 2.353 134.394 2.353 136.609 L 2.353 138.824 55.266 138.893 L 108.179 138.963 108.276 141.293 C 108.330 142.574,108.440 143.688,108.522 143.770 C 108.603 143.851,111.362 142.562,114.654 140.905 C 117.945 139.249,120.713 137.968,120.804 138.059 C 120.895 138.149,120.969 168.411,120.969 205.306 L 120.969 272.388 256.401 272.319 L 391.834 272.249 391.834 137.301 L 391.834 2.353 256.586 2.283 C 182.200 2.245,121.255 2.297,121.154 2.399 M391.696 137.301 L 391.696 272.111 256.471 272.111 L 121.246 272.111 121.246 204.974 C 121.246 131.832,121.363 137.059,119.735 137.901 C 119.342 138.104,117.186 139.181,114.943 140.295 C 112.700 141.408,110.534 142.498,110.130 142.717 C 108.669 143.507,108.512 143.330,108.512 140.900 L 108.512 138.685 55.502 138.685 L 2.491 138.685 2.491 136.609 L 2.491 134.533 55.502 134.533 L 108.512 134.533 108.512 132.318 C 108.512 130.151,109.278 129.156,110.021 130.359 C 110.108 130.499,111.018 131.009,112.045 131.492 C 113.787 132.312,116.475 133.644,117.580 134.235 C 119.680 135.358,120.758 135.705,120.994 135.333 C 121.132 135.114,121.239 106.374,121.241 68.720 L 121.246 2.491 256.471 2.491 L 391.696 2.491 391.696 137.301 M126.080 7.543 C 126.008 7.733,125.980 66.249,126.019 137.578 L 126.090 267.266 256.471 267.266 L 386.851 267.266 386.851 137.301 L 386.851 7.336 256.531 7.266 C 152.420 7.211,126.185 7.266,126.080 7.543 M386.574 137.301 L 386.574 266.990 256.401 267.059 L 126.228 267.129 126.228 137.301 L 126.228 7.473 256.401 7.543 L 386.574 7.612 386.574 137.301 " stroke="none" fill="#545454" fill-rule="evenodd"></path><path id="path4" d="M391.834 137.301 C 391.834 211.722,391.927 272.554,392.042 272.483 C 392.156 272.413,392.249 211.581,392.249 137.301 C 392.249 63.021,392.156 2.189,392.042 2.119 C 391.927 2.048,391.834 62.880,391.834 137.301 M108.291 129.052 C 108.086 129.257,107.958 130.264,107.958 131.682 L 107.958 133.979 55.103 133.979 C 26.032 133.979,2.189 134.073,2.119 134.187 C 2.048 134.301,25.864 134.332,55.044 134.256 L 108.097 134.118 108.178 131.779 C 108.223 130.492,108.394 129.277,108.558 129.080 C 108.933 128.627,108.736 128.607,108.291 129.052 M112.111 130.796 C 112.300 131.024,112.580 131.211,112.732 131.211 C 112.887 131.211,112.857 131.027,112.664 130.796 C 112.475 130.567,112.195 130.381,112.043 130.381 C 111.889 130.381,111.918 130.564,112.111 130.796 M2.119 139.031 C 2.189 139.145,26.027 139.239,55.092 139.239 L 107.936 139.239 108.033 141.384 L 108.130 143.529 108.114 141.315 L 108.097 139.100 55.044 138.962 C 25.864 138.886,2.048 138.917,2.119 139.031 M111.735 142.607 C 111.147 142.904,110.718 143.198,110.780 143.260 C 110.951 143.431,112.941 142.478,112.941 142.226 C 112.941 142.106,112.910 142.020,112.872 142.037 C 112.834 142.054,112.322 142.310,111.735 142.607 M109.465 143.797 C 109.169 144.021,109.052 144.204,109.204 144.204 C 109.356 144.204,109.723 144.021,110.018 143.797 C 110.314 143.574,110.431 143.391,110.279 143.391 C 110.127 143.391,109.760 143.574,109.465 143.797 " stroke="none" fill="#dcdcdc" fill-rule="evenodd"></path></g></svg>