<?xml version="1.0" standalone="yes"?>
<svg xmlns="http://www.w3.org/2000/svg" width="474" height="326">
<path style="fill:#ffffff; stroke:none;" d="M0 0L0 326L474 326L474 0L0 0z"/>
<path style="fill:#020202; stroke:none;" d="M149 4L149 323L468 323L468 4L149 4z"/>
<path style="fill:#ffffff; stroke:none;" d="M162 17L162 310L455 310L455 17L162 17z"/>
<path style="fill:#b2b2b2; stroke:none;" d="M139.667 153.333L140.333 153.667L139.667 153.333M137 154L138 155L137 154z"/>
<path style="fill:#595959; stroke:none;" d="M138 154L137 157L138 157L138 154z"/>
<path style="fill:#020202; stroke:none;" d="M139 154C132.885 159.773 119.002 157 111 157L36 157C29.3957 157 4.75965 153.258 4.12809 162.019C3.32222 173.196 27.6877 169 35 169L111 169C119.002 169 132.885 166.227 139 172C149.095 167.289 149.095 158.711 139 154z"/>
<path style="fill:#979797; stroke:none;" d="M141 154L142 155L141 154M142 155L143 156L142 155M143 156L144 157L143 156M144 157L145 158L144 157z"/>
<path style="fill:#595959; stroke:none;" d="M4 158L5 159L4 158z"/>
<path style="fill:#979797; stroke:none;" d="M145 158L146 159L145 158M146 159L147 160L146 159M147 160L148 161L147 160z"/>
<path style="fill:#b2b2b2; stroke:none;" d="M148 161L149 162L148 161z"/>
<path style="fill:#979797; stroke:none;" d="M148.333 162.667L148.667 163.333L148.333 162.667z"/>
<path style="fill:#b2b2b2; stroke:none;" d="M148 164L149 165L148 164z"/>
<path style="fill:#979797; stroke:none;" d="M147 165L148 166L147 165M146 166L147 167L146 166z"/>
<path style="fill:#595959; stroke:none;" d="M4 167L5 168L4 167z"/>
<path style="fill:#979797; stroke:none;" d="M145 167L146 168L145 167z"/>
<path style="fill:#595959; stroke:none;" d="M5 168L6 169L5 168z"/>
<path style="fill:#979797; stroke:none;" d="M144 168L145 169L144 168z"/>
<path style="fill:#595959; stroke:none;" d="M137 169L139 172L137 169z"/>
<path style="fill:#979797; stroke:none;" d="M143 169L144 170L143 169M142 170L143 171L142 170z"/>
<path style="fill:#b2b2b2; stroke:none;" d="M137 171L138 172L137 171z"/>
<path style="fill:#979797; stroke:none;" d="M141 171L142 172L141 171z"/>
<path style="fill:#b2b2b2; stroke:none;" d="M139.667 172.333L140.333 172.667L139.667 172.333z"/>
</svg>
