<?xml version="1.0" standalone="no"?>
<!DOCTYPE svg PUBLIC "-//W3C//DTD SVG 20010904//EN"
 "http://www.w3.org/TR/2001/REC-SVG-20010904/DTD/svg10.dtd">
<svg version="1.0" xmlns="http://www.w3.org/2000/svg"
 width="840.000000pt" height="509.000000pt" viewBox="0 0 840.000000 509.000000"
 preserveAspectRatio="xMidYMid meet">

<g transform="translate(0.000000,509.000000) scale(0.100000,-0.100000)"
fill="#000000" stroke="none">
<path d="M1900 2595 l0 -2395 2400 0 2400 0 0 1135 0 1135 730 0 730 0 0 -35
c0 -22 5 -35 13 -35 18 0 167 152 167 170 0 18 -150 170 -168 170 -7 0 -12
-14 -12 -35 l0 -35 -730 0 -730 0 0 1160 0 1160 -2400 0 -2400 0 0 -2395z
m4600 0 l0 -2195 -2200 0 -2200 0 0 2195 0 2195 2200 0 2200 0 0 -2195z"/>
<path d="M1710 2705 l0 -35 -744 0 c-669 0 -744 -2 -750 -16 -11 -29 -6 -160
6 -172 9 -9 189 -12 750 -12 l738 0 0 -35 c0 -22 5 -35 13 -35 18 0 167 152
167 170 0 18 -150 170 -168 170 -7 0 -12 -14 -12 -35z"/>
</g>
</svg>
