<?xml version="1.0" standalone="no"?>
<!DOCTYPE svg PUBLIC "-//W3C//DTD SVG 20010904//EN"
 "http://www.w3.org/TR/2001/REC-SVG-20010904/DTD/svg10.dtd">
<svg version="1.0" xmlns="http://www.w3.org/2000/svg"
 width="365.000000pt" height="248.000000pt" viewBox="0 0 365.000000 248.000000"
 preserveAspectRatio="xMidYMid meet">

<g transform="translate(0.000000,248.000000) scale(0.100000,-0.100000)"
fill="#000000" stroke="none">
<path d="M30 1230 l0 -1200 1195 0 1195 0 0 560 0 560 563 0 563 0 37 38 37
38 -43 42 -43 42 -557 0 -557 0 0 560 0 560 -1195 0 -1195 0 0 -1200z m2290 0
l0 -1100 -1095 0 -1095 0 0 1100 0 1100 1095 0 1095 0 0 -1100z"/>
</g>
</svg>
