<?xml version="1.0" standalone="no"?>
<!DOCTYPE svg PUBLIC "-//W3C//DTD SVG 20010904//EN"
 "http://www.w3.org/TR/2001/REC-SVG-20010904/DTD/svg10.dtd">
<svg version="1.0" xmlns="http://www.w3.org/2000/svg"
 width="362.000000pt" height="241.000000pt" viewBox="0 0 362.000000 241.000000"
 preserveAspectRatio="xMidYMid meet">

<g transform="translate(0.000000,241.000000) scale(0.100000,-0.100000)"
fill="#000000" stroke="none">
<path d="M170 1195 l0 -1045 1045 0 1045 0 0 515 0 515 523 0 c287 0 539 -3
560 -6 35 -6 37 -8 37 -45 0 -22 3 -39 8 -38 4 0 49 21 100 47 l92 47 -95 48
c-52 26 -97 47 -100 47 -3 0 -5 -18 -5 -40 l0 -40 -560 0 -560 0 0 520 0 520
-1045 0 -1045 0 0 -1045z m2050 0 l0 -1005 -1005 0 -1005 0 0 1005 0 1005
1005 0 1005 0 0 -1005z"/>
</g>
</svg>
