<?xml version="1.0" standalone="yes"?>
<svg xmlns="http://www.w3.org/2000/svg" width="242" height="379">
<path style="fill:#ffffff; stroke:none;" d="M0 0L0 379L242 379L242 0L0 0z"/>
<path style="fill:#a5a5a5; stroke:none;" d="M230 4L231 4L239 8C236.858 4.99765 233.108 -0.291779 230 4z"/>
<path style="fill:#040404; stroke:none;" d="M231 2C227.526 7.35806 215.794 5 210 5L147 5L147 68C123.226 69.0366 100.294 87.3606 93.439 110C84.2418 140.375 90 178.506 90 210C90 229.9 87.2961 252.552 96.2593 271C102.427 283.695 112.279 293.699 125 299.89C130.085 302.365 144.102 303.815 146.397 309.144C148.57 314.192 147 322.569 147 328C147 342.9 145.873 358.209 147 373L210 373C215.794 373 227.526 370.642 231 376C237.855 371.11 237.855 366.89 231 362C227.681 367.12 217.51 365 212 365L156 365L156 324C156 319.715 154.548 312.034 157.028 308.318C158.91 305.498 163.075 306.059 166 305.536C172.647 304.348 179.044 302.042 185 298.88C206.839 287.29 217.709 265.117 217.996 241C218.329 213.009 218 184.993 218 157C218 140.284 219.766 121.782 213.124 106C206.429 90.0905 193.903 78.356 178 71.865C172.851 69.7631 161.292 70.0877 157.603 66.3966C154.593 63.3846 156 55.8812 156 52L156 12L212 12C217.51 12 227.681 9.88046 231 15C238.433 11.492 238.433 5.50797 231 2z"/>
<path style="fill:#a5a5a5; stroke:none;" d="M146 4L147 5L146 4z"/>
<path style="fill:#656565; stroke:none;" d="M147 4L147 5L231 5L205 4L147 4z"/>
<path style="fill:#2d2d2d; stroke:none;" d="M146 5L146 9L147 9L146 5z"/>
<path style="fill:#656565; stroke:none;" d="M238 8L239 9L238 8z"/>
<path style="fill:#a5a5a5; stroke:none;" d="M238 9L239 10L238 9M237 10L238 11L237 10M236 11L237 12L236 11z"/>
<path style="fill:#2d2d2d; stroke:none;" d="M146 12L146 67L147 67L147 30L146 12M156 12L157 13L156 12z"/>
<path style="fill:#656565; stroke:none;" d="M157 12L157 13L230 13L207 12L157 12z"/>
<path style="fill:#2d2d2d; stroke:none;" d="M230 12L231 13L230 12z"/>
<path style="fill:#a5a5a5; stroke:none;" d="M235 12L236 13L235 12z"/>
<path style="fill:#656565; stroke:none;" d="M156 13L156 67L157 67L157 31L156 13z"/>
<path style="fill:#a5a5a5; stroke:none;" d="M230.333 13.6667L230.667 14.3333L230.333 13.6667M234 13L235 14L234 13M233 14L234 15L233 14M231.667 15.3333L232.333 15.6667L231.667 15.3333M144.667 67.3333L145.333 67.6667L144.667 67.3333z"/>
<path style="fill:#656565; stroke:none;" d="M146 67L147 68L146 67z"/>
<path style="fill:#2d2d2d; stroke:none;" d="M157 67L157 68L160 68L157 67z"/>
<path style="fill:#656565; stroke:none;" d="M160.667 67.3333L161.333 67.6667L160.667 67.3333z"/>
<path style="fill:#a5a5a5; stroke:none;" d="M162.667 67.3333L163.333 67.6667L162.667 67.3333M139 68L140 69L139 68z"/>
<path style="fill:#656565; stroke:none;" d="M140 68L141 69L140 68z"/>
<path style="fill:#2d2d2d; stroke:none;" d="M141 68L142 69L141 68M166 68L167 69L166 68z"/>
<path style="fill:#656565; stroke:none;" d="M167 68L168 69L167 68z"/>
<path style="fill:#a5a5a5; stroke:none;" d="M168 68L169 69L168 68M135 69L136 70L135 69z"/>
<path style="fill:#656565; stroke:none;" d="M136 69L137 70L136 69z"/>
<path style="fill:#2d2d2d; stroke:none;" d="M137 69L138 70L137 69M170 69L171 70L170 69z"/>
<path style="fill:#656565; stroke:none;" d="M171 69L172 70L171 69z"/>
<path style="fill:#a5a5a5; stroke:none;" d="M172 69L173 70L172 69M132 70L133 71L132 70z"/>
<path style="fill:#656565; stroke:none;" d="M133 70L134 71L133 70M174 70L175 71L174 70z"/>
<path style="fill:#a5a5a5; stroke:none;" d="M175 70L176 71L175 70M129 71L130 72L129 71z"/>
<path style="fill:#656565; stroke:none;" d="M130 71L131 72L130 71M177 71L178 72L177 71z"/>
<path style="fill:#a5a5a5; stroke:none;" d="M178 71L179 72L178 71M127 72L128 73L127 72z"/>
<path style="fill:#2d2d2d; stroke:none;" d="M128 72L129 73L128 72M179 72L180 73L179 72z"/>
<path style="fill:#a5a5a5; stroke:none;" d="M180 72L181 73L180 72M125 73L126 74L125 73z"/>
<path style="fill:#2d2d2d; stroke:none;" d="M126 73L127 74L126 73M181 73L182 74L181 73z"/>
<path style="fill:#a5a5a5; stroke:none;" d="M182 73L183 74L182 73z"/>
<path style="fill:#656565; stroke:none;" d="M123 74L124 75L123 74z"/>
<path style="fill:#2d2d2d; stroke:none;" d="M144 74L145 75L144 74z"/>
<path style="fill:#656565; stroke:none;" d="M145.667 74.3333L146.333 74.6667L145.667 74.3333z"/>
<path style="fill:#a5a5a5; stroke:none;" d="M147 74L147 75L150 75L147 74z"/>
<path style="fill:#ffffff; stroke:none;" d="M150 74.4244C130.402 76.9976 112.976 85.8601 103.323 104C93.106 123.2 97 149.016 97 170C97 213.214 83.3327 287.695 142 298.536C149.52 299.926 156.461 299.836 164 298.841C184.68 296.112 202.954 279.933 208.572 260C212.018 247.771 211 234.563 211 222L211 163C211 144.516 213.74 123.234 205.677 106C196.333 86.0284 172.288 71.498 150 74.4244z"/>
<path style="fill:#a5a5a5; stroke:none;" d="M158 74L158 75L161 75L158 74z"/>
<path style="fill:#656565; stroke:none;" d="M161.667 74.3333L162.333 74.6667L161.667 74.3333z"/>
<path style="fill:#2d2d2d; stroke:none;" d="M163 74L164 75L163 74z"/>
<path style="fill:#656565; stroke:none;" d="M184 74L185 75L184 74z"/>
<path style="fill:#a5a5a5; stroke:none;" d="M121 75L122 76L121 75z"/>
<path style="fill:#2d2d2d; stroke:none;" d="M122 75L123 76L122 75M139 75L140 76L139 75z"/>
<path style="fill:#656565; stroke:none;" d="M140 75L141 76L140 75z"/>
<path style="fill:#a5a5a5; stroke:none;" d="M141 75L142 76L141 75M166 75L167 76L166 75z"/>
<path style="fill:#656565; stroke:none;" d="M167 75L168 76L167 75z"/>
<path style="fill:#2d2d2d; stroke:none;" d="M168 75L169 76L168 75M185 75L186 76L185 75z"/>
<path style="fill:#a5a5a5; stroke:none;" d="M186 75L187 76L186 75M119 76L120 77L119 76z"/>
<path style="fill:#2d2d2d; stroke:none;" d="M120 76L121 77L120 76z"/>
<path style="fill:#656565; stroke:none;" d="M136 76L137 77L136 76z"/>
<path style="fill:#a5a5a5; stroke:none;" d="M137 76L138 77L137 76M170 76L171 77L170 76z"/>
<path style="fill:#656565; stroke:none;" d="M171 76L172 77L171 76z"/>
<path style="fill:#2d2d2d; stroke:none;" d="M187 76L188 77L187 76z"/>
<path style="fill:#a5a5a5; stroke:none;" d="M188 76L189 77L188 76z"/>
<path style="fill:#656565; stroke:none;" d="M118 77L119 78L118 77M133 77L134 78L133 77z"/>
<path style="fill:#a5a5a5; stroke:none;" d="M134 77L135 78L134 77M173 77L174 78L173 77z"/>
<path style="fill:#656565; stroke:none;" d="M174 77L175 78L174 77M189 77L190 78L189 77z"/>
<path style="fill:#a5a5a5; stroke:none;" d="M116 78L117 79L116 78z"/>
<path style="fill:#2d2d2d; stroke:none;" d="M117 78L118 79L117 78M130 78L131 79L130 78z"/>
<path style="fill:#a5a5a5; stroke:none;" d="M131 78L132 79L131 78M176 78L177 79L176 78z"/>
<path style="fill:#2d2d2d; stroke:none;" d="M177 78L178 79L177 78M190 78L191 79L190 78z"/>
<path style="fill:#a5a5a5; stroke:none;" d="M191 78L192 79L191 78M115 79L116 80L115 79z"/>
<path style="fill:#2d2d2d; stroke:none;" d="M128 79L129 80L128 79z"/>
<path style="fill:#a5a5a5; stroke:none;" d="M129 79L130 80L129 79M178 79L179 80L178 79z"/>
<path style="fill:#2d2d2d; stroke:none;" d="M179 79L180 80L179 79z"/>
<path style="fill:#a5a5a5; stroke:none;" d="M192 79L193 80L192 79z"/>
<path style="fill:#656565; stroke:none;" d="M114 80L115 81L114 80z"/>
<path style="fill:#2d2d2d; stroke:none;" d="M126 80L127 81L126 80z"/>
<path style="fill:#a5a5a5; stroke:none;" d="M127 80L128 81L127 80M180 80L181 81L180 80z"/>
<path style="fill:#2d2d2d; stroke:none;" d="M181 80L182 81L181 80z"/>
<path style="fill:#656565; stroke:none;" d="M193 80L194 81L193 80z"/>
<path style="fill:#a5a5a5; stroke:none;" d="M112 81L113 82L112 81z"/>
<path style="fill:#2d2d2d; stroke:none;" d="M113 81L114 82L113 81z"/>
<path style="fill:#a5a5a5; stroke:none;" d="M125 81L126 82L125 81M182 81L183 82L182 81z"/>
<path style="fill:#2d2d2d; stroke:none;" d="M194 81L195 82L194 81z"/>
<path style="fill:#a5a5a5; stroke:none;" d="M195 81L196 82L195 81M111 82L112 83L111 82z"/>
<path style="fill:#656565; stroke:none;" d="M123 82L124 83L123 82M184 82L185 83L184 82z"/>
<path style="fill:#a5a5a5; stroke:none;" d="M196 82L197 83L196 82M110 83L111 84L110 83z"/>
<path style="fill:#2d2d2d; stroke:none;" d="M121 83L122 84L121 83z"/>
<path style="fill:#a5a5a5; stroke:none;" d="M122 83L123 84L122 83M185 83L186 84L185 83z"/>
<path style="fill:#2d2d2d; stroke:none;" d="M186 83L187 84L186 83z"/>
<path style="fill:#a5a5a5; stroke:none;" d="M197 83L198 84L197 83z"/>
<path style="fill:#656565; stroke:none;" d="M109 84L110 85L109 84M120 84L121 85L120 84M187 84L188 85L187 84M198 84L199 85L198 84M108 85L109 86L108 85z"/>
<path style="fill:#a5a5a5; stroke:none;" d="M119 85L120 86L119 85M188 85L189 86L188 85z"/>
<path style="fill:#656565; stroke:none;" d="M199 85L200 86L199 85M107 86L108 87L107 86M117 86L118 87L117 86M190 86L191 87L190 86M200 86L201 87L200 86z"/>
<path style="fill:#a5a5a5; stroke:none;" d="M106 87L107 88L106 87z"/>
<path style="fill:#656565; stroke:none;" d="M116 87L117 88L116 87M191 87L192 88L191 87z"/>
<path style="fill:#a5a5a5; stroke:none;" d="M201 87L202 88L201 87M105 88L106 89L105 88z"/>
<path style="fill:#656565; stroke:none;" d="M115 88L116 89L115 88M192 88L193 89L192 88z"/>
<path style="fill:#a5a5a5; stroke:none;" d="M202 88L203 89L202 88M104 89L105 90L104 89M114 89L115 90L114 89M193 89L194 90L193 89M203 89L204 90L203 89M103 90L104 91L103 90M113 90L114 91L113 90M194 90L195 91L194 90M204 90L205 91L204 90z"/>
<path style="fill:#2d2d2d; stroke:none;" d="M103 91L104 92L103 91z"/>
<path style="fill:#a5a5a5; stroke:none;" d="M112 91L113 92L112 91M195 91L196 92L195 91z"/>
<path style="fill:#2d2d2d; stroke:none;" d="M204 91L205 92L204 91z"/>
<path style="fill:#656565; stroke:none;" d="M102 92L103 93L102 92z"/>
<path style="fill:#a5a5a5; stroke:none;" d="M111 92L112 93L111 92M196 92L197 93L196 92z"/>
<path style="fill:#656565; stroke:none;" d="M205 92L206 93L205 92z"/>
<path style="fill:#a5a5a5; stroke:none;" d="M101 93L102 94L101 93z"/>
<path style="fill:#656565; stroke:none;" d="M110 93L111 94L110 93M197 93L198 94L197 93z"/>
<path style="fill:#a5a5a5; stroke:none;" d="M206 93L207 94L206 93M100 94L101 95L100 94z"/>
<path style="fill:#656565; stroke:none;" d="M109 94L110 95L109 94M198 94L199 95L198 94z"/>
<path style="fill:#a5a5a5; stroke:none;" d="M207 94L208 95L207 94z"/>
<path style="fill:#2d2d2d; stroke:none;" d="M100 95L101 96L100 95M108 95L109 96L108 95M199 95L200 96L199 95M207 95L208 96L207 95z"/>
<path style="fill:#a5a5a5; stroke:none;" d="M99 96L100 97L99 96M208 96L209 97L208 96M107 97L108 98L107 97M200 97L201 98L200 97z"/>
<path style="fill:#656565; stroke:none;" d="M98 98L99 99L98 98M106 98L107 99L106 98M201 98L202 99L201 98M209 98L210 99L209 98z"/>
<path style="fill:#a5a5a5; stroke:none;" d="M97 99L98 100L97 99z"/>
<path style="fill:#2d2d2d; stroke:none;" d="M105 99L106 100L105 99M202 99L203 100L202 99z"/>
<path style="fill:#a5a5a5; stroke:none;" d="M210 99L211 100L210 99z"/>
<path style="fill:#2d2d2d; stroke:none;" d="M97 100L98 101L97 100z"/>
<path style="fill:#a5a5a5; stroke:none;" d="M105 100L106 101L105 100M202 100L203 101L202 100z"/>
<path style="fill:#2d2d2d; stroke:none;" d="M210 100L211 101L210 100z"/>
<path style="fill:#a5a5a5; stroke:none;" d="M96 101L97 102L96 101z"/>
<path style="fill:#656565; stroke:none;" d="M104 101L105 102L104 101M203 101L204 102L203 101z"/>
<path style="fill:#a5a5a5; stroke:none;" d="M211 101L212 102L211 101z"/>
<path style="fill:#2d2d2d; stroke:none;" d="M96 102L97 103L96 102M211 102L212 103L211 102z"/>
<path style="fill:#a5a5a5; stroke:none;" d="M95 103L96 104L95 103z"/>
<path style="fill:#656565; stroke:none;" d="M103 103L104 104L103 103M204 103L205 104L204 103z"/>
<path style="fill:#a5a5a5; stroke:none;" d="M212 103L213 104L212 103z"/>
<path style="fill:#2d2d2d; stroke:none;" d="M95 104L96 105L95 104M212 104L213 105L212 104z"/>
<path style="fill:#a5a5a5; stroke:none;" d="M94 105L95 106L94 105z"/>
<path style="fill:#656565; stroke:none;" d="M102 105L103 106L102 105M205 105L206 106L205 105z"/>
<path style="fill:#a5a5a5; stroke:none;" d="M213 105L214 106L213 105z"/>
<path style="fill:#656565; stroke:none;" d="M94 106L95 107L94 106M213 106L214 107L213 106M101 107L102 108L101 107M206 107L207 108L206 107z"/>
<path style="fill:#a5a5a5; stroke:none;" d="M93 108L94 109L93 108M214 108L215 109L214 108z"/>
<path style="fill:#656565; stroke:none;" d="M93 109L94 110L93 109z"/>
<path style="fill:#2d2d2d; stroke:none;" d="M100 109L101 110L100 109M207 109L208 110L207 109z"/>
<path style="fill:#656565; stroke:none;" d="M214 109L215 110L214 109z"/>
<path style="fill:#a5a5a5; stroke:none;" d="M100 110L101 111L100 110M207 110L208 111L207 110M92 111L93 112L92 111M215 111L216 112L215 111z"/>
<path style="fill:#656565; stroke:none;" d="M92 112L93 113L92 112M99 112L100 113L99 112M208 112L209 113L208 112M215 112L216 113L215 112z"/>
<path style="fill:#2d2d2d; stroke:none;" d="M92 113L93 114L92 113z"/>
<path style="fill:#a5a5a5; stroke:none;" d="M99 113L100 114L99 113M208 113L209 114L208 113z"/>
<path style="fill:#2d2d2d; stroke:none;" d="M215 113L216 114L215 113z"/>
<path style="fill:#a5a5a5; stroke:none;" d="M91.3333 114.667L91.6667 115.333L91.3333 114.667M216.333 114.667L216.667 115.333L216.333 114.667z"/>
<path style="fill:#2d2d2d; stroke:none;" d="M98 115L99 116L98 115M209 115L210 116L209 115z"/>
<path style="fill:#656565; stroke:none;" d="M91 116L92 117L91 116M98 116L99 117L98 116M209 116L210 117L209 116M216 116L217 117L216 116z"/>
<path style="fill:#2d2d2d; stroke:none;" d="M91 117L92 118L91 117z"/>
<path style="fill:#a5a5a5; stroke:none;" d="M98 117L99 118L98 117M209 117L210 118L209 117z"/>
<path style="fill:#2d2d2d; stroke:none;" d="M216 117L217 118L216 117M97.3333 119.667L97.6667 120.333L97.3333 119.667M210.333 119.667L210.667 120.333L210.333 119.667z"/>
<path style="fill:#a5a5a5; stroke:none;" d="M90 120L91 121L90 120M217 120L218 121L217 120z"/>
<path style="fill:#656565; stroke:none;" d="M90 121L90 124L91 124L90 121M97 121L98 122L97 121M210 121L211 122L210 121M217 121L217 124L218 124L217 121z"/>
<path style="fill:#a5a5a5; stroke:none;" d="M97 122L97 126L98 126L97 122M210 122L210 126L211 126L210 122z"/>
<path style="fill:#2d2d2d; stroke:none;" d="M90 124L90 127L91 127L90 124M217 124L217 127L218 127L217 124z"/>
<path style="fill:#a5a5a5; stroke:none;" d="M80 179L81 180L80 179z"/>
<path style="fill:#2d2d2d; stroke:none;" d="M79 180C76.0409 184.564 68.9043 183 64 183L21 183C15.6927 183 2.08208 180.302 3.16744 188.946C3.97518 195.379 16.4 193 21 193L64 193C68.9043 193 76.0409 191.436 79 196L80 196L80 192L4 192L4 184L80 184L79 180z"/>
<path style="fill:#040404; stroke:none;" d="M80 180L80 184L4 184L4 192L80 192L80 196C87.9723 190.364 87.9723 185.636 80 180z"/>
<path style="fill:#656565; stroke:none;" d="M81 180L82 181L81 180M82 181L83 182L82 181M83 182L84 183L83 182z"/>
<path style="fill:#a5a5a5; stroke:none;" d="M3 183L4 184L3 183z"/>
<path style="fill:#656565; stroke:none;" d="M84 183L85 184L84 183M85 184L86 185L85 184M86 185L87 186L86 185M87 186L88 187L87 186z"/>
<path style="fill:#a5a5a5; stroke:none;" d="M88.3333 187.667L88.6667 188.333L88.3333 187.667z"/>
<path style="fill:#656565; stroke:none;" d="M87 189L88 190L87 189M86 190L87 191L86 190M85 191L86 192L85 191M84 192L85 193L84 192M83 193L84 194L83 193M82 194L83 195L82 194M81 195L82 196L81 195z"/>
<path style="fill:#a5a5a5; stroke:none;" d="M80 196L81 197L80 196z"/>
<path style="fill:#2d2d2d; stroke:none;" d="M90 247L90 250L91 250L90 247M217 247L217 250L218 250L217 247z"/>
<path style="fill:#a5a5a5; stroke:none;" d="M97 248L97 252L98 252L97 248M210 248L210 252L211 252L210 248z"/>
<path style="fill:#656565; stroke:none;" d="M90 250L90 253L91 253L90 250M217 250L217 253L218 253L217 250M97 252L98 253L97 252M210 252L211 253L210 252z"/>
<path style="fill:#a5a5a5; stroke:none;" d="M90 253L91 254L90 253z"/>
<path style="fill:#2d2d2d; stroke:none;" d="M97.3333 253.667L97.6667 254.333L97.3333 253.667M210.333 253.667L210.667 254.333L210.333 253.667z"/>
<path style="fill:#a5a5a5; stroke:none;" d="M217 253L218 254L217 253z"/>
<path style="fill:#2d2d2d; stroke:none;" d="M91 256L92 257L91 256z"/>
<path style="fill:#a5a5a5; stroke:none;" d="M98 256L99 257L98 256M209 256L210 257L209 256z"/>
<path style="fill:#2d2d2d; stroke:none;" d="M216 256L217 257L216 256z"/>
<path style="fill:#656565; stroke:none;" d="M91 257L92 258L91 257M98 257L99 258L98 257M209 257L210 258L209 257M216 257L217 258L216 257z"/>
<path style="fill:#a5a5a5; stroke:none;" d="M91.3333 258.667L91.6667 259.333L91.3333 258.667z"/>
<path style="fill:#2d2d2d; stroke:none;" d="M98 258L99 259L98 258M209 258L210 259L209 258z"/>
<path style="fill:#a5a5a5; stroke:none;" d="M216.333 258.667L216.667 259.333L216.333 258.667z"/>
<path style="fill:#2d2d2d; stroke:none;" d="M92 260L93 261L92 260z"/>
<path style="fill:#a5a5a5; stroke:none;" d="M99 260L100 261L99 260M208 260L209 261L208 260z"/>
<path style="fill:#2d2d2d; stroke:none;" d="M215 260L216 261L215 260z"/>
<path style="fill:#656565; stroke:none;" d="M92 261L93 262L92 261M99 261L100 262L99 261M208 261L209 262L208 261M215 261L216 262L215 261z"/>
<path style="fill:#a5a5a5; stroke:none;" d="M92 262L93 263L92 262M215 262L216 263L215 262M100 263L101 264L100 263M207 263L208 264L207 263z"/>
<path style="fill:#656565; stroke:none;" d="M93 264L94 265L93 264z"/>
<path style="fill:#2d2d2d; stroke:none;" d="M100 264L101 265L100 264M207 264L208 265L207 264z"/>
<path style="fill:#656565; stroke:none;" d="M214 264L215 265L214 264z"/>
<path style="fill:#a5a5a5; stroke:none;" d="M93 265L94 266L93 265M214 265L215 266L214 265z"/>
<path style="fill:#656565; stroke:none;" d="M101 266L102 267L101 266M206 266L207 267L206 266M94 267L95 268L94 267M213 267L214 268L213 267z"/>
<path style="fill:#a5a5a5; stroke:none;" d="M94 268L95 269L94 268z"/>
<path style="fill:#656565; stroke:none;" d="M102 268L103 269L102 268M205 268L206 269L205 268z"/>
<path style="fill:#a5a5a5; stroke:none;" d="M213 268L214 269L213 268z"/>
<path style="fill:#2d2d2d; stroke:none;" d="M95 269L96 270L95 269M212 269L213 270L212 269z"/>
<path style="fill:#a5a5a5; stroke:none;" d="M95 270L96 271L95 270z"/>
<path style="fill:#656565; stroke:none;" d="M103 270L104 271L103 270M204 270L205 271L204 270z"/>
<path style="fill:#a5a5a5; stroke:none;" d="M212 270L213 271L212 270z"/>
<path style="fill:#2d2d2d; stroke:none;" d="M96 271L97 272L96 271M211 271L212 272L211 271z"/>
<path style="fill:#a5a5a5; stroke:none;" d="M96 272L97 273L96 272z"/>
<path style="fill:#656565; stroke:none;" d="M104 272L105 273L104 272M203 272L204 273L203 272z"/>
<path style="fill:#a5a5a5; stroke:none;" d="M211 272L212 273L211 272z"/>
<path style="fill:#2d2d2d; stroke:none;" d="M97 273L98 274L97 273z"/>
<path style="fill:#a5a5a5; stroke:none;" d="M105 273L106 274L105 273M202 273L203 274L202 273z"/>
<path style="fill:#2d2d2d; stroke:none;" d="M210 273L211 274L210 273z"/>
<path style="fill:#a5a5a5; stroke:none;" d="M97 274L98 275L97 274z"/>
<path style="fill:#2d2d2d; stroke:none;" d="M105 274L106 275L105 274M202 274L203 275L202 274z"/>
<path style="fill:#a5a5a5; stroke:none;" d="M210 274L211 275L210 274z"/>
<path style="fill:#656565; stroke:none;" d="M98 275L99 276L98 275M106 275L107 276L106 275M201 275L202 276L201 275M209 275L210 276L209 275z"/>
<path style="fill:#a5a5a5; stroke:none;" d="M107 276L108 277L107 276M200 276L201 277L200 276M99 277L100 278L99 277M208 277L209 278L208 277z"/>
<path style="fill:#2d2d2d; stroke:none;" d="M100 278L101 279L100 278M108 278L109 279L108 278M199 278L200 279L199 278M207 278L208 279L207 278z"/>
<path style="fill:#a5a5a5; stroke:none;" d="M100 279L101 280L100 279z"/>
<path style="fill:#656565; stroke:none;" d="M109 279L110 280L109 279M198 279L199 280L198 279z"/>
<path style="fill:#a5a5a5; stroke:none;" d="M207 279L208 280L207 279M101 280L102 281L101 280z"/>
<path style="fill:#656565; stroke:none;" d="M110 280L111 281L110 280M197 280L198 281L197 280z"/>
<path style="fill:#a5a5a5; stroke:none;" d="M206 280L207 281L206 280z"/>
<path style="fill:#656565; stroke:none;" d="M102 281L103 282L102 281z"/>
<path style="fill:#a5a5a5; stroke:none;" d="M111 281L112 282L111 281M196 281L197 282L196 281z"/>
<path style="fill:#656565; stroke:none;" d="M205 281L206 282L205 281z"/>
<path style="fill:#2d2d2d; stroke:none;" d="M103 282L104 283L103 282z"/>
<path style="fill:#a5a5a5; stroke:none;" d="M112 282L113 283L112 282M195 282L196 283L195 282z"/>
<path style="fill:#2d2d2d; stroke:none;" d="M204 282L205 283L204 282z"/>
<path style="fill:#a5a5a5; stroke:none;" d="M103 283L104 284L103 283M113 283L114 284L113 283M194 283L195 284L194 283M204 283L205 284L204 283M104 284L105 285L104 284M114 284L115 285L114 284M193 284L194 285L193 284M203 284L204 285L203 284M105 285L106 286L105 285z"/>
<path style="fill:#656565; stroke:none;" d="M115 285L116 286L115 285M192 285L193 286L192 285z"/>
<path style="fill:#a5a5a5; stroke:none;" d="M202 285L203 286L202 285M106 286L107 287L106 286z"/>
<path style="fill:#656565; stroke:none;" d="M116 286L117 287L116 286M191 286L192 287L191 286z"/>
<path style="fill:#a5a5a5; stroke:none;" d="M201 286L202 287L201 286z"/>
<path style="fill:#656565; stroke:none;" d="M107 287L108 288L107 287M117 287L118 288L117 287M190 287L191 288L190 287M200 287L201 288L200 287M108 288L109 289L108 288z"/>
<path style="fill:#a5a5a5; stroke:none;" d="M119 288L120 289L119 288M188 288L189 289L188 288z"/>
<path style="fill:#656565; stroke:none;" d="M199 288L200 289L199 288M109 289L110 290L109 289M120 289L121 290L120 289M187 289L188 290L187 289M198 289L199 290L198 289z"/>
<path style="fill:#a5a5a5; stroke:none;" d="M110 290L111 291L110 290z"/>
<path style="fill:#2d2d2d; stroke:none;" d="M121 290L122 291L121 290z"/>
<path style="fill:#a5a5a5; stroke:none;" d="M122 290L123 291L122 290M185 290L186 291L185 290z"/>
<path style="fill:#2d2d2d; stroke:none;" d="M186 290L187 291L186 290z"/>
<path style="fill:#a5a5a5; stroke:none;" d="M197 290L198 291L197 290M111 291L112 292L111 291z"/>
<path style="fill:#656565; stroke:none;" d="M123 291L124 292L123 291M184 291L185 292L184 291z"/>
<path style="fill:#a5a5a5; stroke:none;" d="M196 291L197 292L196 291M112 292L113 293L112 292z"/>
<path style="fill:#2d2d2d; stroke:none;" d="M113 292L114 293L113 292z"/>
<path style="fill:#a5a5a5; stroke:none;" d="M125 292L126 293L125 292M182 292L183 293L182 292z"/>
<path style="fill:#2d2d2d; stroke:none;" d="M194 292L195 293L194 292z"/>
<path style="fill:#a5a5a5; stroke:none;" d="M195 292L196 293L195 292z"/>
<path style="fill:#656565; stroke:none;" d="M114 293L115 294L114 293z"/>
<path style="fill:#2d2d2d; stroke:none;" d="M126 293L127 294L126 293z"/>
<path style="fill:#a5a5a5; stroke:none;" d="M127 293L128 294L127 293M180 293L181 294L180 293z"/>
<path style="fill:#2d2d2d; stroke:none;" d="M181 293L182 294L181 293z"/>
<path style="fill:#656565; stroke:none;" d="M193 293L194 294L193 293z"/>
<path style="fill:#a5a5a5; stroke:none;" d="M115 294L116 295L115 294z"/>
<path style="fill:#2d2d2d; stroke:none;" d="M128 294L129 295L128 294z"/>
<path style="fill:#a5a5a5; stroke:none;" d="M129 294L130 295L129 294M178 294L179 295L178 294z"/>
<path style="fill:#2d2d2d; stroke:none;" d="M179 294L180 295L179 294z"/>
<path style="fill:#a5a5a5; stroke:none;" d="M192 294L193 295L192 294M116 295L117 296L116 295z"/>
<path style="fill:#2d2d2d; stroke:none;" d="M117 295L118 296L117 295M130 295L131 296L130 295z"/>
<path style="fill:#a5a5a5; stroke:none;" d="M131 295L132 296L131 295M176 295L177 296L176 295z"/>
<path style="fill:#2d2d2d; stroke:none;" d="M177 295L178 296L177 295M190 295L191 296L190 295z"/>
<path style="fill:#a5a5a5; stroke:none;" d="M191 295L192 296L191 295z"/>
<path style="fill:#656565; stroke:none;" d="M118 296L119 297L118 296M133 296L134 297L133 296z"/>
<path style="fill:#a5a5a5; stroke:none;" d="M134 296L135 297L134 296M173 296L174 297L173 296z"/>
<path style="fill:#656565; stroke:none;" d="M174 296L175 297L174 296M189 296L190 297L189 296z"/>
<path style="fill:#a5a5a5; stroke:none;" d="M119 297L120 298L119 297z"/>
<path style="fill:#2d2d2d; stroke:none;" d="M120 297L121 298L120 297z"/>
<path style="fill:#656565; stroke:none;" d="M136 297L137 298L136 297z"/>
<path style="fill:#a5a5a5; stroke:none;" d="M137 297L138 298L137 297M170 297L171 298L170 297z"/>
<path style="fill:#656565; stroke:none;" d="M171 297L172 298L171 297z"/>
<path style="fill:#2d2d2d; stroke:none;" d="M187 297L188 298L187 297z"/>
<path style="fill:#a5a5a5; stroke:none;" d="M188 297L189 298L188 297M121 298L122 299L121 298z"/>
<path style="fill:#2d2d2d; stroke:none;" d="M122 298L123 299L122 298M139 298L140 299L139 298z"/>
<path style="fill:#656565; stroke:none;" d="M140 298L141 299L140 298z"/>
<path style="fill:#a5a5a5; stroke:none;" d="M141 298L142 299L141 298M166 298L167 299L166 298z"/>
<path style="fill:#656565; stroke:none;" d="M167 298L168 299L167 298z"/>
<path style="fill:#2d2d2d; stroke:none;" d="M168 298L169 299L168 298M185 298L186 299L185 298z"/>
<path style="fill:#a5a5a5; stroke:none;" d="M186 298L187 299L186 298z"/>
<path style="fill:#656565; stroke:none;" d="M123 299L124 300L123 299z"/>
<path style="fill:#2d2d2d; stroke:none;" d="M144 299L145 300L144 299z"/>
<path style="fill:#656565; stroke:none;" d="M145.667 299.333L146.333 299.667L145.667 299.333z"/>
<path style="fill:#a5a5a5; stroke:none;" d="M147 299L147 300L150 300L147 299M158 299L158 300L161 300L158 299z"/>
<path style="fill:#656565; stroke:none;" d="M161.667 299.333L162.333 299.667L161.667 299.333z"/>
<path style="fill:#2d2d2d; stroke:none;" d="M163 299L164 300L163 299z"/>
<path style="fill:#656565; stroke:none;" d="M184 299L185 300L184 299z"/>
<path style="fill:#a5a5a5; stroke:none;" d="M125 300L126 301L125 300z"/>
<path style="fill:#2d2d2d; stroke:none;" d="M126 300L127 301L126 300M181 300L182 301L181 300z"/>
<path style="fill:#a5a5a5; stroke:none;" d="M182 300L183 301L182 300M127 301L128 302L127 301z"/>
<path style="fill:#2d2d2d; stroke:none;" d="M128 301L129 302L128 301M179 301L180 302L179 301z"/>
<path style="fill:#a5a5a5; stroke:none;" d="M180 301L181 302L180 301M129 302L130 303L129 302z"/>
<path style="fill:#656565; stroke:none;" d="M130 302L131 303L130 302M177 302L178 303L177 302z"/>
<path style="fill:#a5a5a5; stroke:none;" d="M178 302L179 303L178 302M132 303L133 304L132 303z"/>
<path style="fill:#656565; stroke:none;" d="M133 303L134 304L133 303M174 303L175 304L174 303z"/>
<path style="fill:#a5a5a5; stroke:none;" d="M175 303L176 304L175 303M135 304L136 305L135 304z"/>
<path style="fill:#656565; stroke:none;" d="M136 304L137 305L136 304z"/>
<path style="fill:#2d2d2d; stroke:none;" d="M137 304L138 305L137 304M170 304L171 305L170 304z"/>
<path style="fill:#656565; stroke:none;" d="M171 304L172 305L171 304z"/>
<path style="fill:#a5a5a5; stroke:none;" d="M172 304L173 305L172 304M139 305L140 306L139 305z"/>
<path style="fill:#656565; stroke:none;" d="M140 305L141 306L140 305z"/>
<path style="fill:#2d2d2d; stroke:none;" d="M141 305L142 306L141 305M166 305L167 306L166 305z"/>
<path style="fill:#656565; stroke:none;" d="M167 305L168 306L167 305z"/>
<path style="fill:#a5a5a5; stroke:none;" d="M168 305L169 306L168 305M144.667 306.333L145.333 306.667L144.667 306.333z"/>
<path style="fill:#2d2d2d; stroke:none;" d="M157 306L157 307L160 307L157 306z"/>
<path style="fill:#656565; stroke:none;" d="M160.667 306.333L161.333 306.667L160.667 306.333z"/>
<path style="fill:#a5a5a5; stroke:none;" d="M162.667 306.333L163.333 306.667L162.667 306.333z"/>
<path style="fill:#2d2d2d; stroke:none;" d="M146 307L146 365L147 365L147 326L146 307z"/>
<path style="fill:#656565; stroke:none;" d="M156 307L156 364L157 364L157 325L156 307z"/>
<path style="fill:#a5a5a5; stroke:none;" d="M231 361L232 362L231 361z"/>
<path style="fill:#2d2d2d; stroke:none;" d="M230 362L230 365L231 365L230 362z"/>
<path style="fill:#656565; stroke:none;" d="M232 362L233 363L232 362M233 363L234 364L233 363z"/>
<path style="fill:#2d2d2d; stroke:none;" d="M156 364L157 365L156 364z"/>
<path style="fill:#a5a5a5; stroke:none;" d="M157 364L157 365L230 365L207 364L157 364z"/>
<path style="fill:#656565; stroke:none;" d="M234 364L235 365L234 364M235 365L236 366L235 365M236 366L237 367L236 366M237 367L238 368L237 367z"/>
<path style="fill:#2d2d2d; stroke:none;" d="M146 368L146 372L147 372L146 368z"/>
<path style="fill:#a5a5a5; stroke:none;" d="M238.333 368.667L238.667 369.333L238.333 368.667z"/>
<path style="fill:#656565; stroke:none;" d="M237 370L238 371L237 370M236 371L237 372L236 371M146 372L147 373L146 372M235 372L236 373L235 372z"/>
<path style="fill:#a5a5a5; stroke:none;" d="M147 373L147 374L230 374L204 373L147 373z"/>
<path style="fill:#2d2d2d; stroke:none;" d="M230 373L230 376L231 376L230 373z"/>
<path style="fill:#656565; stroke:none;" d="M234 373L235 374L234 373M233 374L234 375L233 374M232 375L233 376L232 375z"/>
<path style="fill:#a5a5a5; stroke:none;" d="M231 376L232 377L231 376z"/>
</svg>
