<?xml version="1.0" standalone="no"?>
<!DOCTYPE svg PUBLIC "-//W3C//DTD SVG 20010904//EN"
 "http://www.w3.org/TR/2001/REC-SVG-20010904/DTD/svg10.dtd">
<svg version="1.0" xmlns="http://www.w3.org/2000/svg"
 width="733.000000pt" height="264.000000pt" viewBox="0 0 733.000000 264.000000"
 preserveAspectRatio="xMidYMid meet">

<g transform="translate(0.000000,264.000000) scale(0.100000,-0.100000)"
fill="#000000" stroke="none">
<path d="M3460 2499 c-240 -51 -441 -166 -612 -349 -175 -187 -287 -431 -305
-668 l-6 -83 -53 52 c-49 49 -55 52 -79 41 -14 -6 -25 -18 -25 -27 0 -13 -111
-15 -993 -15 -759 0 -996 -3 -1005 -12 -7 -7 -12 -39 -12 -73 0 -105 -106 -95
1023 -95 877 0 987 -2 987 -15 0 -9 11 -21 25 -27 24 -11 30 -8 80 42 l55 54
0 -49 c0 -28 9 -90 19 -140 148 -716 900 -1117 1578 -841 171 70 364 217 478
366 112 146 201 355 226 533 10 67 16 86 27 82 7 -3 454 -5 993 -5 870 0 979
-2 979 -15 0 -9 11 -21 25 -27 24 -11 30 -7 85 47 42 42 60 67 60 85 0 18 -18
43 -60 85 -55 54 -61 58 -85 47 -14 -6 -25 -18 -25 -27 0 -13 -115 -15 -993
-17 l-993 -3 -12 90 c-24 175 -104 369 -213 515 -113 153 -252 269 -424 355
-166 83 -270 107 -480 111 -143 3 -185 0 -265 -17z"/>
</g>
</svg>
