<?xml version="1.0" standalone="no"?>
<!DOCTYPE svg PUBLIC "-//W3C//DTD SVG 20010904//EN"
 "http://www.w3.org/TR/2001/REC-SVG-20010904/DTD/svg10.dtd">
<svg version="1.0" xmlns="http://www.w3.org/2000/svg"
 width="686.000000pt" height="346.000000pt" viewBox="0 0 686.000000 346.000000"
 preserveAspectRatio="xMidYMid meet">

<g transform="translate(0.000000,346.000000) scale(0.100000,-0.100000)"
fill="#000000" stroke="none">
<path d="M1920 2533 l0 -797 -58 57 -58 57 -777 0 -777 0 0 -110 0 -110 782 0
782 0 53 52 53 52 0 -797 0 -797 1595 0 1595 0 0 745 0 745 742 0 742 0 53 52
53 52 -57 58 -57 58 -738 0 -738 0 0 740 0 740 -1595 0 -1595 0 0 -797z m3060
-798 l0 -1465 -1465 0 -1465 0 0 1465 0 1465 1465 0 1465 0 0 -1465z"/>
</g>
</svg>
