<?xml version="1.0" standalone="yes"?>
<svg xmlns="http://www.w3.org/2000/svg" width="611" height="338">
<path style="fill:#ffffff; stroke:none;" d="M0 0L0 338L611 338L611 0L0 0z"/>
<path style="fill:#020202; stroke:none;" d="M152 7L152 326L471 326L471 172L564 172C573.059 172 591.146 168.529 598 175C608.095 170.289 608.095 161.711 598 157C591.146 163.471 573.059 160 564 160L471 160L471 7L152 7z"/>
<path style="fill:#ffffff; stroke:none;" d="M165 20L165 313L458 313L458 20L165 20z"/>
<path style="fill:#b2b2b2; stroke:none;" d="M142.667 156.333L143.333 156.667L142.667 156.333M598.667 156.333L599.333 156.667L598.667 156.333M140 157L141 158L140 157z"/>
<path style="fill:#585858; stroke:none;" d="M141 157L140 160L141 160L141 157z"/>
<path style="fill:#020202; stroke:none;" d="M142 157C135.885 162.773 122.002 160 114 160L39 160C32.3957 160 7.75965 156.258 7.12809 165.019C6.32222 176.196 30.6877 172 38 172L114 172C122.002 172 135.885 169.227 142 175C152.095 170.289 152.095 161.711 142 157z"/>
<path style="fill:#979797; stroke:none;" d="M144 157L145 158L144 157z"/>
<path style="fill:#b2b2b2; stroke:none;" d="M596 157L597 158L596 157z"/>
<path style="fill:#585858; stroke:none;" d="M597 157L598 158L597 157z"/>
<path style="fill:#979797; stroke:none;" d="M600 157L601 158L600 157M145 158L146 159L145 158z"/>
<path style="fill:#585858; stroke:none;" d="M596.333 158.667L596.667 159.333L596.333 158.667z"/>
<path style="fill:#979797; stroke:none;" d="M601 158L602 159L601 158M146 159L147 160L146 159M602 159L603 160L602 159M147 160L148 161L147 160M603 160L604 161L603 160z"/>
<path style="fill:#585858; stroke:none;" d="M7 161L8 162L7 161z"/>
<path style="fill:#979797; stroke:none;" d="M148 161L149 162L148 161M604 161L605 162L604 161M149 162L150 163L149 162M605 162L606 163L605 162M150 163L151 164L150 163M606 163L607 164L606 163z"/>
<path style="fill:#b2b2b2; stroke:none;" d="M151 164L152 165L151 164M607 164L608 165L607 164z"/>
<path style="fill:#979797; stroke:none;" d="M151.333 165.667L151.667 166.333L151.333 165.667M607.333 165.667L607.667 166.333L607.333 165.667z"/>
<path style="fill:#b2b2b2; stroke:none;" d="M151 167L152 168L151 167M607 167L608 168L607 167z"/>
<path style="fill:#979797; stroke:none;" d="M150 168L151 169L150 168M606 168L607 169L606 168M149 169L150 170L149 169M605 169L606 170L605 169z"/>
<path style="fill:#585858; stroke:none;" d="M7 170L8 171L7 170z"/>
<path style="fill:#979797; stroke:none;" d="M148 170L149 171L148 170M604 170L605 171L604 170z"/>
<path style="fill:#585858; stroke:none;" d="M8 171L9 172L8 171z"/>
<path style="fill:#979797; stroke:none;" d="M147 171L148 172L147 171M603 171L604 172L603 171z"/>
<path style="fill:#585858; stroke:none;" d="M140 172L142 175L140 172z"/>
<path style="fill:#979797; stroke:none;" d="M146 172L147 173L146 172z"/>
<path style="fill:#585858; stroke:none;" d="M596 172L598 175L596 172z"/>
<path style="fill:#979797; stroke:none;" d="M602 172L603 173L602 172M145 173L146 174L145 173M601 173L602 174L601 173z"/>
<path style="fill:#b2b2b2; stroke:none;" d="M140 174L141 175L140 174z"/>
<path style="fill:#979797; stroke:none;" d="M144 174L145 175L144 174z"/>
<path style="fill:#b2b2b2; stroke:none;" d="M596 174L597 175L596 174z"/>
<path style="fill:#979797; stroke:none;" d="M600 174L601 175L600 174z"/>
<path style="fill:#b2b2b2; stroke:none;" d="M142.667 175.333L143.333 175.667L142.667 175.333M598.667 175.333L599.333 175.667L598.667 175.333z"/>
</svg>
